<svg xmlns="http://www.w3.org/2000/svg" viewBox="0 0 445.73 164.14"><defs><style>.cls-1{fill:#5b59a5;}</style></defs><title>logo</title><g id="Layer_2" data-name="Layer 2"><g id="Layer_1-2" data-name="Layer 1"><path class="cls-1" d="M12.37,76.52l.55,1.25A28.1,28.1,0,0,1,11,74.67,214.11,214.11,0,0,0,22.41,95.08L24,97.6l.8,1.24.4.61.05.08,0,0,0,0,.08.1c.4.52.8,1,1.17,1.4a6.79,6.79,0,0,0,1.91,1.58,2,2,0,0,0,.81.94c.22.07.35-.15.38-.61a7.45,7.45,0,0,0-.13-1.58,5,5,0,0,0-.36-1.27,3.68,3.68,0,0,1-.13-.6,7.85,7.85,0,0,1,0-2,1.88,1.88,0,0,1,.08-.28l0-.11v0L29,96.88l-.34-.67-2.86-5.5L28,95.21c-1.13-2.17-2.25-4.31-3.63-6.66l.23,1C20.9,81.91,14.82,72.1,11,67.6s-3.95-2.06-.26,5.54Z"/><path class="cls-1" d="M17.75,91.57c-2.27-4.51-4.41-8.86-6.56-13.22l-.33-.92-.52.68.09.05C13.32,81.74,17.35,88,21,93.88l1.35,2.06a6.43,6.43,0,0,0,1.49,1.68c.62.3-.16-1.73-1.74-4.53L20.3,89.86C16.12,81.87,8.92,69.65,5.2,66c-.85-.82-.68.24-.87.63-.63,0,.7,3.13,3,7s4.57,7,5.19,7l1.08,2-1.08-1.46c1,.86,3.22,4.35,5,6.85L19.89,92l-.25-2.86-1.35-2c0,.18.16.52.14.5-2.6-3.74-5.06-7.24-7.77-11.41L7.09,71.12c-1.06-1.34-1.28-1-.52.68l1.18,2.52-.5-1.16c3,5.65,6.3,11.54,9.26,17.13A12.37,12.37,0,0,0,18,92.61c.33.32.24-.12-.24-1"/><path class="cls-1" d="M6.14,72.22A29.74,29.74,0,0,0,4.5,69.11l-.4-.49.85,1.85c.61,1.33,1.09,1.92,1.2,1.75"/><polygon class="cls-1" points="4.1 68.62 3.75 67.85 3.93 68.39 4.02 68.53 4.1 68.62"/><path class="cls-1" d="M127.95,48.45A180.48,180.48,0,0,1,151.2,27.32,142.21,142.21,0,0,1,178.54,11a3.71,3.71,0,0,0,1.19-.68c0-.08-.53.09-1.14.36A142.16,142.16,0,0,0,151.2,27a179.83,179.83,0,0,0-23.28,21.1,4.36,4.36,0,0,0-.83,1.1c0,.08.41-.24.86-.72"/><path class="cls-1" d="M269.59,14.51c-.47-.1-.48,0,0,.2a9.24,9.24,0,0,0,1.56.55c.4.09.41,0,0-.19a8.29,8.29,0,0,0-1.57-.55"/><path class="cls-1" d="M263.69,18.89a72.2,72.2,0,0,0-7.37-1.62,9.34,9.34,0,0,1-1.22-.31c.12.16-.4.14-1.36,0a123.44,123.44,0,0,0-29-1.81,102.43,102.43,0,0,0-28.89,6,2.31,2.31,0,0,1-.69.54,51.12,51.12,0,0,1-6.31,2.83l-2,.77a122.3,122.3,0,0,0-22.7,12.55c-1.36,1.16-3,2.48-4.69,3.9a177,177,0,0,0-16.06,16.24c.39-.3.67-.44.75-.36.09.29-1,1.72-2.4,3.26l-2.09,2.36c2-2.23,4.13-4.41,6.28-6.51.31-.31.6-.58.87-.83q3.48-3.51,7.21-6.91a135.44,135.44,0,0,1,35.21-23.71,104,104,0,0,1,39.67-9.34,6.93,6.93,0,0,1,1.55.05c.26.07.21.16-.29.18a96,96,0,0,0-24.21,4.6A124.44,124.44,0,0,0,182.3,31.31,133.67,133.67,0,0,0,155.48,51.9a184.49,184.49,0,0,0-22.31,26.65q-2.33,3.16-4.48,6.38l-1.07,1.61-1,1.52-1,1.62c-1.36,2.16-2.69,4.36-4,6.62s-2.55,4.57-3.76,7L114.22,111l-7.36,15.61-.7-.89-.33-.41a5.07,5.07,0,0,1-.33-.44L104,122.76l-2.92-4.22L95.26,110,83.33,92.81l-3-4.38-1.19-1.7-.81-1.15L75,81l-1.64-2.33c-.49-.69-1.32-1.89-1.16-1.61l-.3-.26a4.2,4.2,0,0,0-.74-.51c-.11.49-.18.82-.22,1.08l0,.17v0l-.45,1.09-1,2.44-4.1,9.73-8.82,20.82L40,150.46c-2,4.76-4,9.38-5.88,13.68-5.13-8.9-9.72-17.26-13-23.69s-5.33-11-5.65-12.74c-.22-1.31.5-1,1.85.47A78,78,0,0,1,23,135.75l-2.75-4.69L16,123.48c-2-3.57-3.79-6.89-5.28-9.78-.75-1.45-1.41-2.79-2-4-.17-.35-.22-.49-.3-.68l-.21-.54c-.14-.35-.26-.69-.37-1L6.58,104C5.22,99.27,2.17,92,1.3,88l.87.51-.35-.87C.58,84.81-.07,82.79,0,81.93l.66-.05c.91.21,2.25,1.2,4,3,.17-.2.54-.07,1.06.36-.54-2.12-.5-3.3,1-2.23-.49-1.18-.16-1.13.73.09.31.42.65.94,1,1.49v0c-.22-.68-.28-.88-.61-1.77l-.93-1.75-3-5.47c-1.08-2.25-1.62-3.72-1.62-3.72-.48-2.91-.48-2.91.13-2.78l.38.39L1.47,66.82c-.25-.58-.38-1-.38-1,.16-.21.16-.21,0-.58,0-.15.11-.18.11-.18.86.92.86.92.95.91.21.21.47.53.47.53l1.26,1.88,1,3,.53.47.11.77,0-.49.66,1.43-.7-1.66c1.8,3.24,1.8,3.24,2.56,4.51S9.62,78.87,9.7,79c0-.15.05-.19.05-.19l3.78,6.84c.13.34.22.61.31.87a10,10,0,0,1,1,1.56l1,1.77.25.36v0l1,1.41.21.29v0L21.56,98l.83,1.52.39.73.19.36.15.29s-.11-.26-.16-.4l-.19-.44c-.25-.59.25-.21.09-.52C19,92,14.49,84,10.11,76a10.32,10.32,0,0,1-1.46-3.08c.06-.28.8.63,1.67,2.05,2.57,3.74,5.2,7.75,7.83,11.91q2,3.12,3.94,6.35l2,3.24,1.75,2.94a95.31,95.31,0,0,1,4.73,9.52l.13-.18c.72-1.37,1.49-2.9,2.3-4.53l-.17.09.69-1.14.07-.14a8.13,8.13,0,0,1-.69.51l-.35.5a32.57,32.57,0,0,1-2,3.66c-1.07-2.34-1.93-4.44-2.68-6.18A21.08,21.08,0,0,1,27,99.28l-.14-.49,0-.12v0l-.06-.11-.12-.23-.47-.93L24.2,93.63c-.73-1.28-1.11-2.23-.87-2.17a8.92,8.92,0,0,1,1.75,2.43l2.25,3.7.28.47.06.1,0,0,.1.14.19.29c.25.38.48.78.71,1.19a32.83,32.83,0,0,1,1.44,3.06,19,19,0,0,1,2.28-2.19,9,9,0,0,1,.6-1.13c.11-.18.23-.35.35-.51l.19-.24.1-.12.05-.06,0,0,.06-.12.07-.14-.15.23c0,.07-.05,0-.08.08l-.14.1-.27.18a3.12,3.12,0,0,1,.27-.38l.7-1.28c.47-.85.94-1.67,1.47-2.74l-.8.61c2.67-5.84,5.33-12,8-18,1.33-3,2.67-6,4-8.84l3-6.62,3.2-6.88L54,52.72c3.14-8.21,6.51-16.92,10.63-26.66l-4.22,9.46C62.23,31,64.07,26.39,66,21.78c1.69,2.43,3.41,4.95,5.19,7.58,6.3,9.34,12.94,19.5,18.49,28.33l2,3.25c.62,1,1.42,2.28,1.64,2.7.69,1.21,1.34,2.38,1.93,3.48,1.19,2.2,2.16,4.15,2.84,5.73l1.26,1.82.73,1,1.45,2.07,1.43,2,.71,1,.35.5.09.12s0-.09.07-.13l.14-.29c.64-1.34,1.33-2.63,2-3.89.36-.63.72-1.25,1.08-1.86l.55-.9.28-.45.75-1.14A223.52,223.52,0,0,1,123.67,53a8.83,8.83,0,0,1,2-2c.2,0-.28.75-1.14,1.78A234.13,234.13,0,0,0,110,72.9l-.84,1.31-.13.2-.08.14-.16.27-.64,1.08q-.63,1.09-1.26,2.24c-.83,1.53-1.66,3.11-2.42,4.77l-.14.31c0,.08-.09.3-.15.13l-.37-.5-.74-1,.74,1.18.37.6c.07.19.11,0,.16-.09l.15-.28c1.31-2.42,2.88-4.9,4.6-7.42l2.06-3q1.47-2.12,3-4.21,3-4.18,6.28-8.26,1.87-2.42,3.84-4.82c1.29-1.58,2.65-3.08,4-4.55A179.78,179.78,0,0,1,150.3,30a151.46,151.46,0,0,1,26.15-16.88,122.8,122.8,0,0,1,24.78-9.37A118.68,118.68,0,0,1,227.6,0a129.41,129.41,0,0,1,37.31,4.58A160.38,160.38,0,0,1,299.07,18.4c3,1.54,5.47,3.31,5.62,3.83s-2.08-.4-5-1.94A174.43,174.43,0,0,0,263.45,6.12a130.09,130.09,0,0,0-39.12-4.26,118.37,118.37,0,0,0-38.86,8.6,142.11,142.11,0,0,0-34.61,20.43,169.67,169.67,0,0,0-13,11.36c.09,0,.17,0,.21,0s-.12.66-.65,1.4A156.22,156.22,0,0,1,152.17,31,134,134,0,0,1,175,15.65,105.31,105.31,0,0,1,239.93,4.34a144.13,144.13,0,0,1,45.2,11.89,5.76,5.76,0,0,1,1.33.7c.17.16-.16.08-.75-.16a166.09,166.09,0,0,0-31.53-9.5c1.67.6,2.61,1.15,2.4,1.44s-1.6.28-3.66.07q3.66.78,7.28,1.77c1.48.41,2.61.88,2.52,1a6.38,6.38,0,0,1-2.7-.43,124.47,124.47,0,0,0-30-4.45,111.65,111.65,0,0,0-35.9,5.79,11.17,11.17,0,0,1,3.6-.24h0c1.8-.52,3.6-1,5.41-1.44a106.38,106.38,0,0,1,25.54-3.48,117.07,117.07,0,0,1,26,2.61c17.16,3.64,33.52,10.82,48.58,19.9.59.35,1.05.7,1,.77s-.52-.14-1-.47a174.89,174.89,0,0,0-28.53-14l0,0c.38.2.42.31,0,.19a10.63,10.63,0,0,1-1.55-.58c-.44-.22-.37-.29,0-.2A131.65,131.65,0,0,0,244.5,8.51a109.86,109.86,0,0,0-29.14.12,110.94,110.94,0,0,1,26.86.1,127.51,127.51,0,0,1,26.08,6.16c1.88.53,3.74,1.09,5.62,1.71a6.23,6.23,0,0,1,1.33.62c.12.11-.28,0-.8-.14l-1.56-.51c3.16,1.21,5.43,2.54,5.22,2.89s-3.11-.5-6.36-1.72a139.63,139.63,0,0,0-26.93-6.86c-1-.12-2-.23-3-.33s-2-.1-3-.14a135.16,135.16,0,0,1,41.12,11.67c1.12.48,2,1,2,1.16s-1-.15-2.1-.64a142.38,142.38,0,0,0-36.11-9.76,109.36,109.36,0,0,0-37.26,1.59A108.36,108.36,0,0,0,183.74,24l2.88-1.27a117.14,117.14,0,0,1,36.67-9.43,107.81,107.81,0,0,1,37.59,3.51,3.53,3.53,0,0,1,1.22.48c0,.09-.41,0-1.05-.16a110.7,110.7,0,0,0-18.4-3.32,112.55,112.55,0,0,0-18.45-.21,98,98,0,0,0-29,6.46,109.63,109.63,0,0,1,28.32-5.85,108.31,108.31,0,0,1,29,1.93,13,13,0,0,1,2.21.59,1.21,1.21,0,0,1,.5,0c2.45.39,5.1,1,7.78,1.66a5.4,5.4,0,0,1,1.39.51c.24.15-.08.11-.66,0M30.42,118.64l-.18-.48.64,1.37.4,1.17a5.11,5.11,0,0,0,.47-.22l-.45.43ZM17,100.26v0l-.45-1.41ZM106.5,80.65c-.7,1.22-1.38,2.45-2,3.66l-.16.31-.08.16,0,0s0,0,0,0l-.05-.08-.4-.62-.8-1.24-1.56-2.48c-1-1.65-2-3.28-2.9-4.84l2,2.84,1.94,3.19,1,1.67.52.85.13.21s0,.08.06.09l0-.09.21-.37c.61-1.09,1.29-2.18,2-3.3m-82,23.58c.58,1.59,1,3.11,1.53,4.71.61.89,1.21,1.85,1.81,2.91,1.08,1.89,2.15,3.79,3.23,5.74l1.26-2.69c-.22,0,.08-.66.22-1.05l.44-1.15-2,4-2.42-4.59c-1.42-2.72-2.94-5.46-4.1-7.89M6.08,74.6l-.17-.44.79.72ZM4.81,73.48l.36.69a.91.91,0,0,1-.36-.69m3.3,6.36c-.14-.41-.23-.65-.37-1Zm-5.3,9,2.76,1.61L2.73,88.63Z"/><polygon class="cls-1" points="200.91 77.78 193 50.28 199.54 50.28 204.32 69.03 209.1 50.28 215.07 50.28 207.16 77.78 207.16 91.42 200.91 91.42 200.91 77.78"/><path class="cls-1" d="M216.21,60.16c0-6.58,3.36-10.35,9.5-10.35s9.5,3.76,9.5,10.35V81.55c0,6.58-3.36,10.35-9.5,10.35s-9.5-3.76-9.5-10.35ZM222.46,82c0,2.94,1.25,4.06,3.24,4.06s3.24-1.12,3.24-4.06V59.74c0-2.94-1.25-4.06-3.24-4.06s-3.24,1.12-3.24,4.06Z"/><path class="cls-1" d="M245.21,50.28V82c0,2.94,1.25,4,3.24,4s3.24-1.06,3.24-4V50.28h5.91V81.6c0,6.59-3.18,10.35-9.33,10.35S239,88.19,239,81.6V50.28Z"/><polygon class="cls-1" points="267.45 61.63 267.45 91.42 261.82 91.42 261.82 50.28 269.67 50.28 276.1 74.91 276.1 50.28 281.67 50.28 281.67 91.42 275.24 91.42 267.45 61.63"/><path class="cls-1" d="M295.55,68.5h8.76v13c0,6.58-3.18,10.35-9.33,10.35s-9.33-3.76-9.33-10.35V60.16c0-6.58,3.18-10.35,9.33-10.35s9.33,3.76,9.33,10.35v4h-5.91V59.74c0-2.94-1.25-4.06-3.24-4.06s-3.24,1.12-3.24,4.06V82c0,2.94,1.25,4,3.24,4s3.24-1.06,3.24-4V74.38h-2.84Z"/><polygon class="cls-1" points="164.74 111.22 163.11 126.93 156.95 126.93 153.77 97.44 158.14 97.44 160.54 120.7 162.7 97.44 167.02 97.44 169.27 120.87 171.59 97.44 175.5 97.44 172.32 126.93 166.37 126.93 164.74 111.22"/><polygon class="cls-1" points="182.23 109.87 188.39 109.87 188.39 114.08 182.23 114.08 182.23 122.72 189.98 122.72 189.98 126.93 177.75 126.93 177.75 97.44 189.98 97.44 189.98 101.66 182.23 101.66 182.23 109.87"/><path class="cls-1" d="M206.16,104.22v1.05c0,3-.9,5-2.89,5.94,2.41,1,3.34,3.2,3.34,6.32v2.4c0,4.55-2.32,7-6.81,7h-7.05V97.44h6.77c4.65,0,6.65,2.23,6.65,6.78m-8.93-2.57v7.79H199c1.67,0,2.69-.76,2.69-3.12v-1.64c0-2.1-.69-3-2.28-3Zm0,12v9.06h2.57c1.51,0,2.32-.72,2.32-2.91v-2.57c0-2.74-.86-3.58-2.9-3.58Z"/><polygon class="cls-1" points="218.8 118.38 221.86 97.44 228.1 97.44 228.1 126.93 223.86 126.93 223.86 105.78 220.76 126.93 216.52 126.93 213.18 106.08 213.18 126.93 209.26 126.93 209.26 97.44 215.5 97.44 218.8 118.38"/><path class="cls-1" d="M245.88,126.93h-4.53l-.77-5.35h-5.5l-.77,5.35h-4.12l4.57-29.49h6.56Zm-10.23-9.35H240l-2.16-14.91Z"/><path class="cls-1" d="M254,97.1c4.36,0,6.6,2.7,6.6,7.42v.93h-4.24v-1.22c0-2.11-.81-2.91-2.24-2.91s-2.24.8-2.24,2.91c0,6.07,8.77,7.21,8.77,15.63,0,4.72-2.28,7.41-6.69,7.41s-6.69-2.7-6.69-7.41V118h4.24v2.11c0,2.11.9,2.87,2.33,2.87s2.32-.76,2.32-2.87c0-6.07-8.77-7.2-8.77-15.63,0-4.72,2.24-7.42,6.6-7.42"/><polygon class="cls-1" points="261.9 97.44 275.76 97.44 275.76 101.66 271.07 101.66 271.07 126.93 266.59 126.93 266.59 101.66 261.9 101.66 261.9 97.44"/><polygon class="cls-1" points="282.2 109.87 288.36 109.87 288.36 114.08 282.2 114.08 282.2 122.72 289.95 122.72 289.95 126.93 277.72 126.93 277.72 97.44 289.95 97.44 289.95 101.66 282.2 101.66 282.2 109.87"/><path class="cls-1" d="M302.1,126.93a9.3,9.3,0,0,1-.41-3.62v-4.63c0-2.74-.89-3.75-2.93-3.75h-1.55v12h-4.48V97.44h6.77c4.65,0,6.64,2.23,6.64,6.78v2.32c0,3-.94,5-2.93,6,2.24,1,3,3.2,3,6.28v4.55a9,9,0,0,0,.49,3.58Zm-4.89-25.28v9.06H299c1.67,0,2.69-.76,2.69-3.12v-2.91c0-2.1-.69-3-2.28-3Z"/><path class="cls-1" d="M253.39,152.07V156c0,4.72-2.28,7.42-6.69,7.42S240,160.71,240,156V140.65c0-4.72,2.28-7.42,6.68-7.42s6.69,2.7,6.69,7.42v2.86h-4.24v-3.16c0-2.11-.9-2.91-2.32-2.91s-2.33.8-2.33,2.91v15.93c0,2.11.9,2.87,2.33,2.87s2.32-.76,2.32-2.87v-4.21Z"/><path class="cls-1" d="M270.64,163.07h-4.53l-.77-5.35h-5.5l-.78,5.35h-4.12l4.57-29.49h6.56Zm-10.23-9.35h4.32l-2.16-14.91Z"/><polygon class="cls-1" points="282.22 154.51 285.28 133.57 291.51 133.57 291.51 163.07 287.27 163.07 287.27 141.91 284.18 163.07 279.94 163.07 276.59 142.21 276.59 163.07 272.68 163.07 272.68 133.57 278.21 133.57 282.22 154.51"/><path class="cls-1" d="M308.07,140.86v3.83c0,4.72-2.2,7.29-6.69,7.29h-2.12v11.08h-4.48V133.57h6.61c4.48,0,6.69,2.57,6.69,7.29m-8.81-3.07v10h2.12c1.43,0,2.2-.67,2.2-2.78v-4.42c0-2.11-.77-2.78-2.2-2.78Z"/><polygon class="cls-1" points="414.22 52.58 428.79 52.58 428.79 57.01 423.86 57.01 423.86 83.59 419.15 83.59 419.15 57.01 414.22 57.01 414.22 52.58"/><polygon class="cls-1" points="435.56 83.59 430.85 83.59 430.85 52.58 435.56 52.58 435.56 65.87 440.92 65.87 440.92 52.58 445.73 52.58 445.73 83.59 440.92 83.59 440.92 70.3 435.56 70.3 435.56 83.59"/><path class="cls-1" d="M331.43,77.72H317.19V64.9c5,0,5-.44,8-1.31a14.93,14.93,0,0,0,7.21-4.35,27,27,0,0,0,4.75-8.79h11.72V163.84H331.43Z"/><path class="cls-1" d="M363,156.59q-6.81-7.29-6.81-20.6V78.64q0-28.83,26.62-28.84,12.67,0,19.33,7.21t6.65,20.68v2.06H392.27V76.58q0-10.93-9-10.93-4.91,0-7.29,3t-2.38,10.62V100.5h.32q4.59-9.66,15.84-9.66,9.51,0,14.42,6.5t4.91,18.85V136q0,13.31-6.81,20.6t-19.65,7.29Q369.77,163.88,363,156.59Zm28.68-19.33V117.61q0-10.93-9-10.93t-9,10.93v19.65q0,10.78,9,10.77T391.64,137.26Z"/></g></g></svg>